<?xml version="1.0" encoding="UTF-8" standalone="no"?>
<!-- Created with Inkscape (http://www.inkscape.org/) -->

<svg
   version="1.1"
   id="svg228"
   width="764.15997"
   height="764.15997"
   viewBox="0 0 764.15997 764.15997"
   sodipodi:docname="logo-bet.svg"
   inkscape:export-filename="Aleph_with_Beth-logo-beth.png"
   inkscape:export-xdpi="128.64322"
   inkscape:export-ydpi="128.64322"
   inkscape:version="1.2.1 (9c6d41e4, 2022-07-14)"
   xmlns:inkscape="http://www.inkscape.org/namespaces/inkscape"
   xmlns:sodipodi="http://sodipodi.sourceforge.net/DTD/sodipodi-0.dtd"
   xmlns="http://www.w3.org/2000/svg"
   xmlns:svg="http://www.w3.org/2000/svg">
  <defs
     id="defs232" />
  <sodipodi:namedview
     id="namedview230"
     pagecolor="#ffffff"
     bordercolor="#000000"
     borderopacity="0.25"
     inkscape:showpageshadow="2"
     inkscape:pageopacity="0.0"
     inkscape:pagecheckerboard="0"
     inkscape:deskcolor="#d1d1d1"
     showgrid="false"
     inkscape:zoom="0.52999374"
     inkscape:cx="359.43821"
     inkscape:cy="336.79643"
     inkscape:window-width="1440"
     inkscape:window-height="847"
     inkscape:window-x="0"
     inkscape:window-y="25"
     inkscape:window-maximized="1"
     inkscape:current-layer="g234" />
  <g
     inkscape:groupmode="layer"
     inkscape:label="Image"
     id="g234">
    <path
       style="fill:#008000;stroke-width:0.32"
       d="m 79.653489,626.14798 c -5.293659,-0.47744 -9.811009,-3.03559 -11.646499,-6.59539 -0.71306,-1.38292 -0.97702,-3.81012 -0.64116,-5.89565 1.69261,-10.51014 16.253769,-25.00608 38.99239,-38.81779 11.12811,-6.75933 30.87731,-16.6065 58.25526,-29.04669 37.9275,-17.23376 81.35271,-31.95449 129.95189,-44.05248 38.90145,-9.6839 71.01006,-16.04099 154.5281,-30.59456 11.704,-2.03952 21.3777,-3.73817 21.49709,-3.77481 0.11942,-0.0366 -1.5096,-2.94663 -3.62006,-6.46663 -4.35104,-7.25705 -10.14688,-18.63878 -12.87312,-25.27999 -13.176,-32.09715 -13.77386,-62.648 -1.96013,-100.16 4.69625,-14.9119 9.71033,-27.10711 25.9191,-63.04 3.65197,-8.096 8.76576,-19.472 11.36397,-25.28 2.59821,-5.808 5.5192,-12.216 6.49104,-14.24 3.58643,-7.46906 4.98921,-12.21725 4.56166,-15.44039 -0.65843,-4.96337 -5.51593,-9.03795 -13.0424,-10.94023 -4.89331,-1.23676 -9.30192,-1.56444 -18.4304,-1.3699 -11.27769,0.24035 -19.04572,1.1975 -40.86675,5.03544 -5.984,1.05249 -14.04799,2.35148 -17.91999,2.88666 -33.78935,4.6703 -69.33264,13.18428 -121.76,29.16621 -5.192,1.58273 -18.8,5.80159 -30.24,9.37526 -23.24904,7.2626 -29.33314,9.06193 -37.92,11.21458 -28.29588,7.09351 -49.55235,7.75197 -65.8176,2.03882 -12.75865,-4.48146 -20.56546,-12.58448 -23.68419,-24.58284 -0.99555,-3.83005 -1.34634,-11.5448 -0.75791,-16.66824 1.67834,-14.61334 8.81314,-32.27674 19.76424,-48.92974 3.36356,-5.11487 6.90998,-9.90294 9.85517,-13.30562 1.06635,-1.232 4.11253,-4.832 6.76928,-8 7.69085,-9.17084 12.15333,-13.03618 17.04282,-14.76227 11.13644,-3.93138 13.83602,8.04251 6.53871,29.00227 -0.45957,1.32 -2.96058,7.8 -5.55781,14.4 -2.59722,6.6 -5.32834,13.872 -6.06914,16.16 -1.45053,4.48 -3.02455,11.00888 -3.38354,14.03463 -0.20607,1.73683 -0.17823,1.86136 0.37877,1.69396 0.33066,-0.0994 2.9772,-0.77196 5.8812,-1.49463 19.65136,-4.89028 37.47126,-10.01793 76.16,-21.91494 45.79799,-14.08315 60.27445,-18.26827 81.92,-23.68292 43.38476,-10.85276 80.21689,-15.75563 115.19999,-15.33475 26.70615,0.3213 45.68006,3.86164 61.67955,11.50879 7.62336,3.64368 12.76957,7.11737 17.90646,12.08685 9.98855,9.66301 15.41312,21.0472 17.41284,36.543 0.61766,4.78644 0.52544,18.966 -0.16445,25.28 -1.81917,16.64923 -6.06746,33.79429 -13.63818,55.04 -3.50761,9.84347 -7.06486,18.90512 -15.79648,40.23955 -13.92832,34.03197 -18.49462,46.5952 -22.88953,62.97616 -1.06013,3.95136 -3.16551,11.21629 -4.67856,16.14429 -6.67562,21.74217 -9.08381,33.47024 -8.70618,42.4 0.31075,7.34918 2.17597,10.69145 6.79453,12.17529 1.9463,0.62531 3.12112,0.73862 8.96,0.86416 7.65379,0.16454 12.38477,-0.20438 26.72,-2.08378 9.05833,-1.18758 9.19142,-1.19536 19.68,-1.14761 24.51699,0.11161 50.22265,2.20825 93.59999,7.63443 7.656,0.9577 16.512,2.03542 19.68,2.39491 13.89652,1.57693 22.27568,3.52211 28.37123,6.58627 3.753,1.88656 7.8441,4.96903 7.44724,5.61117 -0.0969,0.15683 -3.15575,0.28573 -6.79735,0.28647 -19.18956,0.004 -53.004,1.84067 -79.90111,4.34051 -96.97475,9.01286 -195.66265,30.3574 -325.59999,70.42191 -44.96069,13.86308 -56.42599,17.76442 -87.52,29.7808 -43.5419,16.82692 -57.64866,21.66234 -78.23999,26.81859 -3.256,0.81536 -8.5225,2.3296 -11.70334,3.36503 -14.428651,4.69683 -20.983901,5.9832 -27.496661,5.39584 z"
       id="path346" />
    <path
       style="fill:#008000;stroke-width:0.32"
       d="m 79.653489,626.14798 c -5.293659,-0.47744 -9.811009,-3.03559 -11.646499,-6.59539 -0.71306,-1.38292 -0.97702,-3.81012 -0.64116,-5.89565 1.69261,-10.51014 16.253769,-25.00608 38.99239,-38.81779 11.12811,-6.75933 30.87731,-16.6065 58.25526,-29.04669 37.9275,-17.23376 81.35271,-31.95449 129.95189,-44.05248 38.90145,-9.6839 71.01006,-16.04099 154.5281,-30.59456 11.704,-2.03952 21.3777,-3.73817 21.49709,-3.77481 0.11942,-0.0366 -1.5096,-2.94663 -3.62006,-6.46663 -4.35104,-7.25705 -10.14688,-18.63878 -12.87312,-25.27999 -13.176,-32.09715 -13.77386,-62.648 -1.96013,-100.16 4.69625,-14.9119 9.71033,-27.10711 25.9191,-63.04 3.65197,-8.096 8.76576,-19.472 11.36397,-25.28 2.59821,-5.808 5.5192,-12.216 6.49104,-14.24 3.58643,-7.46906 4.98921,-12.21725 4.56166,-15.44039 -0.65843,-4.96337 -5.51593,-9.03795 -13.0424,-10.94023 -4.89331,-1.23676 -9.30192,-1.56444 -18.4304,-1.3699 -11.27769,0.24035 -19.04572,1.1975 -40.86675,5.03544 -5.984,1.05249 -14.04799,2.35148 -17.91999,2.88666 -33.78935,4.6703 -69.33264,13.18428 -121.76,29.16621 -5.192,1.58273 -18.8,5.80159 -30.24,9.37526 -23.24904,7.2626 -29.33314,9.06193 -37.92,11.21458 -28.29588,7.09351 -49.55235,7.75197 -65.8176,2.03882 -12.75865,-4.48146 -20.56546,-12.58448 -23.68419,-24.58284 -0.99555,-3.83005 -1.34634,-11.5448 -0.75791,-16.66824 1.67834,-14.61334 8.81314,-32.27674 19.76424,-48.92974 3.36356,-5.11487 6.90998,-9.90294 9.85517,-13.30562 1.06635,-1.232 4.11253,-4.832 6.76928,-8 7.69085,-9.17084 12.15333,-13.03618 17.04282,-14.76227 11.13644,-3.93138 13.83602,8.04251 6.53871,29.00227 -0.45957,1.32 -2.96058,7.8 -5.55781,14.4 -2.59722,6.6 -5.32834,13.872 -6.06914,16.16 -1.45053,4.48 -3.02455,11.00888 -3.38354,14.03463 -0.20607,1.73683 -0.17823,1.86136 0.37877,1.69396 0.33066,-0.0994 2.9772,-0.77196 5.8812,-1.49463 19.65136,-4.89028 37.47126,-10.01793 76.16,-21.91494 45.79799,-14.08315 60.27445,-18.26827 81.92,-23.68292 43.38476,-10.85276 80.21689,-15.75563 115.19999,-15.33475 26.70615,0.3213 45.68006,3.86164 61.67955,11.50879 7.62336,3.64368 12.76957,7.11737 17.90646,12.08685 9.98855,9.66301 15.41312,21.0472 17.41284,36.543 0.61766,4.78644 0.52544,18.966 -0.16445,25.28 -1.81917,16.64923 -6.06746,33.79429 -13.63818,55.04 -3.50761,9.84347 -7.06486,18.90512 -15.79648,40.23955 -13.92832,34.03197 -18.49462,46.5952 -22.88953,62.97616 -1.06013,3.95136 -3.16551,11.21629 -4.67856,16.14429 -6.67562,21.74217 -9.08381,33.47024 -8.70618,42.4 0.31075,7.34918 2.17597,10.69145 6.79453,12.17529 1.9463,0.62531 3.12112,0.73862 8.96,0.86416 7.65379,0.16454 12.38477,-0.20438 26.72,-2.08378 9.05833,-1.18758 9.19142,-1.19536 19.68,-1.14761 24.51699,0.11161 50.22265,2.20825 93.59999,7.63443 7.656,0.9577 16.512,2.03542 19.68,2.39491 13.89652,1.57693 22.27568,3.52211 28.37123,6.58627 3.753,1.88656 7.8441,4.96903 7.44724,5.61117 -0.0969,0.15683 -3.15575,0.28573 -6.79735,0.28647 -19.18956,0.004 -53.004,1.84067 -79.90111,4.34051 -96.97475,9.01286 -195.66265,30.3574 -325.59999,70.42191 -44.96069,13.86308 -56.42599,17.76442 -87.52,29.7808 -43.5419,16.82692 -57.64866,21.66234 -78.23999,26.81859 -3.256,0.81536 -8.5225,2.3296 -11.70334,3.36503 -14.428651,4.69683 -20.983901,5.9832 -27.496661,5.39584 z"
       id="path395" />
    <path
       style="fill:#37aaa4;stroke-width:0.32;fill-opacity:1"
       d="m 79.653489,626.14798 c -5.293659,-0.47744 -9.811009,-3.03559 -11.646499,-6.59539 -0.71306,-1.38292 -0.97702,-3.81012 -0.64116,-5.89565 1.69261,-10.51014 16.253769,-25.00608 38.99239,-38.81779 11.12811,-6.75933 30.87731,-16.6065 58.25526,-29.04669 37.9275,-17.23376 81.35271,-31.95449 129.95189,-44.05248 38.90145,-9.6839 71.01006,-16.04099 154.5281,-30.59456 11.704,-2.03952 21.3777,-3.73817 21.49709,-3.77481 0.11942,-0.0366 -1.5096,-2.94663 -3.62006,-6.46663 -4.35104,-7.25705 -10.14688,-18.63878 -12.87312,-25.27999 -13.176,-32.09715 -13.77386,-62.648 -1.96013,-100.16 4.69625,-14.9119 9.71033,-27.10711 25.9191,-63.04 3.65197,-8.096 8.76576,-19.472 11.36397,-25.28 2.59821,-5.808 5.5192,-12.216 6.49104,-14.24 3.58643,-7.46906 4.98921,-12.21725 4.56166,-15.44039 -0.65843,-4.96337 -5.51593,-9.03795 -13.0424,-10.94023 -4.89331,-1.23676 -9.30192,-1.56444 -18.4304,-1.3699 -11.27769,0.24035 -19.04572,1.1975 -40.86675,5.03544 -5.984,1.05249 -14.04799,2.35148 -17.91999,2.88666 -33.78935,4.6703 -69.33264,13.18428 -121.76,29.16621 -5.192,1.58273 -18.8,5.80159 -30.24,9.37526 -23.24904,7.2626 -29.33314,9.06193 -37.92,11.21458 -28.29588,7.09351 -49.55235,7.75197 -65.8176,2.03882 -12.75865,-4.48146 -20.56546,-12.58448 -23.68419,-24.58284 -0.99555,-3.83005 -1.34634,-11.5448 -0.75791,-16.66824 1.67834,-14.61334 8.81314,-32.27674 19.76424,-48.92974 3.36356,-5.11487 6.90998,-9.90294 9.85517,-13.30562 1.06635,-1.232 4.11253,-4.832 6.76928,-8 7.69085,-9.17084 12.15333,-13.03618 17.04282,-14.76227 11.13644,-3.93138 13.83602,8.04251 6.53871,29.00227 -0.45957,1.32 -2.96058,7.8 -5.55781,14.4 -2.59722,6.6 -5.32834,13.872 -6.06914,16.16 -1.45053,4.48 -3.02455,11.00888 -3.38354,14.03463 -0.20607,1.73683 -0.17823,1.86136 0.37877,1.69396 0.33066,-0.0994 2.9772,-0.77196 5.8812,-1.49463 19.65136,-4.89028 37.47126,-10.01793 76.16,-21.91494 45.79799,-14.08315 60.27445,-18.26827 81.92,-23.68292 43.38476,-10.85276 80.21689,-15.75563 115.19999,-15.33475 26.70615,0.3213 45.68006,3.86164 61.67955,11.50879 7.62336,3.64368 12.76957,7.11737 17.90646,12.08685 9.98855,9.66301 15.41312,21.0472 17.41284,36.543 0.61766,4.78644 0.52544,18.966 -0.16445,25.28 -1.81917,16.64923 -6.06746,33.79429 -13.63818,55.04 -3.50761,9.84347 -7.06486,18.90512 -15.79648,40.23955 -13.92832,34.03197 -18.49462,46.5952 -22.88953,62.97616 -1.06013,3.95136 -3.16551,11.21629 -4.67856,16.14429 -6.67562,21.74217 -9.08381,33.47024 -8.70618,42.4 0.31075,7.34918 2.17597,10.69145 6.79453,12.17529 1.9463,0.62531 3.12112,0.73862 8.96,0.86416 7.65379,0.16454 12.38477,-0.20438 26.72,-2.08378 9.05833,-1.18758 9.19142,-1.19536 19.68,-1.14761 24.51699,0.11161 50.22265,2.20825 93.59999,7.63443 7.656,0.9577 16.512,2.03542 19.68,2.39491 13.89652,1.57693 22.27568,3.52211 28.37123,6.58627 3.753,1.88656 7.8441,4.96903 7.44724,5.61117 -0.0969,0.15683 -3.15575,0.28573 -6.79735,0.28647 -19.18956,0.004 -53.004,1.84067 -79.90111,4.34051 -96.97475,9.01286 -195.66265,30.3574 -325.59999,70.42191 -44.96069,13.86308 -56.42599,17.76442 -87.52,29.7808 -43.5419,16.82692 -57.64866,21.66234 -78.23999,26.81859 -3.256,0.81536 -8.5225,2.3296 -11.70334,3.36503 -14.428651,4.69683 -20.983901,5.9832 -27.496661,5.39584 z"
       id="path397" />
  </g>
</svg>
